<?xml version="1.0" standalone="no"?>
<!DOCTYPE svg PUBLIC "-//W3C//DTD SVG 20010904//EN"
 "http://www.w3.org/TR/2001/REC-SVG-20010904/DTD/svg10.dtd">
<svg version="1.0" xmlns="http://www.w3.org/2000/svg"
 width="500.000000pt" height="500.000000pt" viewBox="0 0 500.000000 500.000000"
 preserveAspectRatio="xMidYMid meet">
<metadata>
Created by potrace 1.14, written by Peter Selinger 2001-2017
</metadata>
<g transform="translate(0.000000,500.000000) scale(0.100000,-0.100000)"
fill="#000000" stroke="none">
<path d="M0 2500 l0 -2500 2500 0 2500 0 0 2500 0 2500 -2500 0 -2500 0 0
-2500z m2461 2390 c16 -22 17 -33 9 -95 -12 -80 -30 -111 -86 -140 -62 -32
-93 -55 -99 -75 -7 -21 -210 -156 -250 -166 -17 -4 -41 -15 -54 -26 -13 -10
-28 -18 -33 -18 -6 0 -27 -13 -47 -28 -37 -30 -206 -122 -222 -122 -5 0 -31
-15 -57 -33 -26 -19 -69 -42 -97 -52 -27 -10 -81 -32 -120 -50 -62 -29 -83
-33 -181 -38 -118 -5 -128 -8 -210 -74 -23 -18 -46 -33 -52 -33 -6 0 -19 -15
-29 -34 -10 -19 -31 -58 -47 -88 -15 -29 -38 -66 -50 -83 -50 -67 -113 -236
-100 -269 3 -8 -2 -30 -11 -48 -23 -45 -45 -140 -39 -165 5 -17 -2 -25 -38
-41 -61 -27 -114 -83 -122 -130 -8 -50 -8 -107 1 -116 11 -10 32 -96 33 -130
0 -16 -6 -37 -14 -45 -7 -9 -39 -54 -71 -101 -33 -47 -65 -91 -72 -98 -13 -13
-15 -32 -19 -152 -1 -30 -7 -89 -13 -130 -6 -41 -9 -95 -6 -120 4 -25 6 -65 6
-90 0 -60 25 -186 56 -285 23 -72 94 -234 115 -260 23 -29 78 -118 84 -137 4
-13 15 -34 24 -48 9 -14 23 -35 31 -47 69 -106 325 -383 355 -383 11 0 159
-114 214 -165 14 -14 55 -31 93 -41 63 -15 137 -63 218 -139 9 -8 18 -15 21
-15 3 0 44 -18 90 -39 45 -22 106 -45 133 -51 28 -6 59 -17 70 -24 23 -15 172
-70 232 -85 22 -6 76 -16 120 -22 43 -6 110 -15 148 -21 100 -14 595 -10 702
7 49 7 108 23 133 34 50 23 144 29 138 9 -13 -38 -141 -88 -298 -118 -163 -30
-339 -50 -431 -49 -46 1 -151 0 -234 -1 -184 -3 -237 6 -470 82 -49 16 -112
34 -140 40 -78 16 -526 242 -620 313 -77 57 -177 125 -186 125 -2 0 -72 67
-154 148 -150 148 -340 383 -393 488 -12 25 -63 87 -114 139 -79 82 -127 143
-141 180 -43 114 -56 170 -57 230 0 28 -7 77 -15 110 -21 87 -19 125 15 242
28 98 30 111 22 193 -11 103 -4 158 33 260 14 41 44 143 66 225 34 124 39 159
33 200 -18 126 -6 186 50 250 14 17 44 55 66 85 35 48 40 61 40 110 0 54 2 57
78 152 42 53 86 109 97 124 11 15 29 39 41 53 40 49 114 188 114 214 0 55 40
134 93 185 100 96 122 114 162 135 64 32 101 37 164 20 66 -17 142 -13 191 11
79 38 98 51 160 111 68 65 180 145 204 145 7 0 25 9 39 20 33 26 178 70 231
70 23 0 54 -7 70 -15 57 -30 99 -30 147 1 61 38 114 53 178 51 45 -2 57 -6 72
-27z m314 -1260 c0 -13 -27 -15 -176 -18 l-176 -2 -7 -43 c-6 -44 -18 -116
-35 -207 -5 -30 -17 -98 -26 -150 -8 -52 -25 -145 -35 -207 -11 -62 -25 -143
-30 -180 -5 -37 -14 -94 -19 -125 -26 -138 -33 -176 -41 -230 -6 -32 -15 -86
-21 -120 -27 -154 -30 -176 -35 -218 -3 -25 -9 -54 -14 -65 -9 -20 -15 -65
-26 -177 -3 -32 -10 -58 -15 -58 -12 0 -12 93 0 106 5 5 12 32 15 59 5 49 15
118 36 245 6 36 15 94 20 130 16 103 28 182 35 220 3 19 22 139 41 265 19 127
39 256 44 288 16 92 28 167 40 247 6 41 15 94 20 118 6 23 10 55 10 70 0 60
35 71 235 69 135 -2 160 -4 160 -17z m-748 -737 c-3 -10 -5 -4 -5 12 0 17 2
24 5 18 2 -7 2 -21 0 -30z m1319 -25 c8 -9 -11 -154 -46 -343 -10 -56 -15 -84
-40 -235 -5 -30 -23 -136 -40 -235 -18 -99 -34 -197 -37 -217 -3 -21 -11 -38
-17 -38 -12 0 -10 34 13 178 5 31 14 89 21 127 6 39 15 99 21 135 6 36 14 90
19 120 5 30 14 87 20 125 6 39 15 95 20 125 14 94 29 184 36 211 l6 26 -184
-4 c-191 -4 -218 -1 -218 24 0 13 30 14 209 11 115 -1 213 -6 217 -10z m-1471
-8 c-4 -6 -93 -10 -236 -10 -146 0 -229 4 -229 10 0 6 85 10 236 10 154 0 233
-3 229 -10z m52 4 c-3 -3 -12 -4 -19 -1 -8 3 -5 6 6 6 11 1 17 -2 13 -5z
m-518 -77 c0 -12 -4 -31 -9 -42 -6 -15 -9 -8 -9 28 -1 30 3 46 9 42 6 -3 10
-16 9 -28z m-19 -128 c0 -21 -4 -39 -10 -39 -5 0 -10 21 -10 46 0 27 4 43 10
39 6 -3 10 -24 10 -46z m2297 -26 c-3 -10 -5 -4 -5 12 0 17 2 24 5 18 2 -7 2
-21 0 -30z m-1774 -8 c3 -13 -208 -18 -382 -10 -217 11 -132 25 137 22 151 -1
243 -6 245 -12z m7 -65 c0 -16 -4 -50 -9 -77 -6 -26 -15 -74 -21 -106 -8 -37
-18 -60 -30 -67 -11 -6 -123 -10 -273 -10 l-254 0 -7 -47 c-3 -27 -10 -75 -16
-108 -5 -33 -15 -89 -20 -125 -6 -36 -15 -92 -21 -125 -5 -33 -12 -76 -15 -95
-5 -34 -9 -37 -58 -48 -64 -15 -310 -16 -337 -1 -42 22 -3 29 171 29 166 0
179 1 185 19 7 23 59 326 71 416 7 48 24 97 38 108 6 4 128 7 271 6 l260 -2 7
44 c27 164 41 228 49 223 5 -3 9 -18 9 -34z m1747 -57 c-3 -10 -5 -2 -5 17 0
19 2 27 5 18 2 -10 2 -26 0 -35z m-20 -115 c-2 -13 -4 -5 -4 17 -1 22 1 32 4
23 2 -10 2 -28 0 -40z m-20 -120 c-2 -13 -4 -5 -4 17 -1 22 1 32 4 23 2 -10 2
-28 0 -40z m-18 -105 c0 -32 -3 -42 -8 -29 -7 18 -3 76 5 76 2 0 4 -21 3 -47z
m-22 -150 c-2 -16 -4 -3 -4 27 0 30 2 43 4 28 2 -16 2 -40 0 -55z m-20 -115
c-2 -18 -4 -4 -4 32 0 36 2 50 4 33 2 -18 2 -48 0 -65z m-17 -99 c-7 -31 -8
-29 -8 21 -1 39 2 49 8 34 4 -11 5 -36 0 -55z m-1440 -34 c0 -25 -4 -45 -10
-45 -11 0 -14 73 -3 83 11 12 13 8 13 -38z m1410 5 c10 -6 -46 -10 -167 -10
-116 0 -183 4 -183 10 0 13 330 13 350 0z m-1430 -125 c0 -19 -4 -35 -10 -35
-11 0 -14 53 -3 63 11 12 13 8 13 -28z m-20 -121 c0 -21 -4 -33 -10 -29 -17
10 -11 65 7 65 2 0 3 -16 3 -36z m-24 -142 c-12 -12 -18 8 -10 35 l8 28 4 -28
c2 -16 1 -31 -2 -35z m112 -69 c-21 -2 -57 -2 -80 0 -24 2 -7 4 37 4 44 0 63
-2 43 -4z m1914 -450 c-10 -13 -27 -26 -39 -29 -12 -3 -30 -18 -39 -32 -48
-76 -264 -191 -264 -141 0 11 25 39 35 39 4 0 33 16 66 35 33 19 71 38 84 41
14 3 33 19 42 35 10 16 20 29 23 29 3 0 16 10 30 23 14 13 34 28 45 34 28 16
38 -4 17 -34z m-362 -223 c0 -5 -9 -14 -21 -20 -11 -7 -38 -29 -60 -51 -21
-21 -45 -39 -53 -39 -8 0 -34 -25 -58 -55 -42 -55 -81 -80 -114 -73 -29 5 -27
27 5 57 17 16 31 33 31 38 0 22 149 113 185 113 8 0 15 6 15 14 0 8 6 17 13
19 21 9 57 7 57 -3z"/>
</g>
</svg>
